<?xml version="1.0" encoding="utf-8"?>
<!-- Generator: Adobe Illustrator 22.1.0, SVG Export Plug-In . SVG Version: 6.00 Build 0)  -->
<svg version="1.1" id="Layer_1" xmlns="http://www.w3.org/2000/svg" xmlns:xlink="http://www.w3.org/1999/xlink" x="0px" y="0px"
	 viewBox="0 0 470 179" style="enable-background:new 0 0 470 179;" xml:space="preserve">
<g>
	<g>
		<path style="fill:#FFFB00;" d="M58.8,121.3c0,5.1,0,7.6,0,12.7c-0.1,14.9-9.8,25.1-24.2,27.8c-15.1,2.8-24.1-6.9-24.1-21.7
			c0-17.9,0-35.9,0-53.8c0-15,8.7-26.1,24.2-26c14.5,0.1,24.3,9.4,24.2,24c0,3.7,0,5.6,0,9.3c-6.1,0.3-9.2,0.5-15.4,0.8
			c0-4.2,0-6.3,0-10.5c0-7-3.2-9.6-8.4-9.4c-5.2,0.1-8.4,2.9-8.4,10.1c0,18.1,0,36.2-0.1,54.3c0,7.2,3.2,9.3,8.4,8.5
			c5.1-0.7,8.4-3.7,8.4-10.7c0-5.6,0-8.4,0-14C49.6,122.2,52.7,121.9,58.8,121.3z"/>
		<path style="fill:#FFFB00;" d="M121.2,149.4c-6.6,0.6-9.9,1-16.4,1.7c-1.1-6.4-1.6-9.6-2.7-16c-8,0.7-12,1.1-19.9,1.9
			c-1.1,6.8-1.7,10.2-2.9,17.1c-6,0.8-8.9,1.2-14.9,2c5.5-31.6,11.1-63.2,16.9-94.7c9.5,0,14.3,0,23.8,0
			C110.3,90.7,115.7,120.1,121.2,149.4z M84.2,124.3c6.3-0.5,9.4-0.8,15.7-1.3c-2.6-15.1-5.1-30.3-7.6-45.5
			C89.5,93.1,86.8,108.7,84.2,124.3z"/>
		<path style="fill:#FFFB00;" d="M177.2,82.1c0,4.4,0,6.6,0,10.9c0.5,14-11.4,21.8-24.4,21.7c-3.1,0.1-4.6,0.2-7.7,0.3
			c0,12.9-0.1,19.4-0.1,32.3c-6.5,0.5-9.8,0.8-16.3,1.3c0.1-29.1,0.2-58.2,0.4-87.4c9.6,0,14.4,0,23.9,0
			C165.8,60.5,177.9,68.2,177.2,82.1z M145.3,73.6c0,11.7-0.1,17.5-0.1,29.1c3.1-0.1,4.6-0.2,7.7-0.3c5.2-0.2,8-2.2,8-8.3
			c0-5.1,0-7.6,0-12.7c0-6.1-2.8-8-8-7.9C149.9,73.6,148.4,73.6,145.3,73.6z"/>
		<path style="fill:#FFFB00;" d="M207.4,60.3c12,0,24.5,7.1,23.9,20.8c0,1,0,1.6,0,2.6c-6.2,0-9.2,0-15.4,0c0-1.4,0-2.1,0-3.4
			c0-5.9-3-8.2-8.1-8.1c-5.2,0-8.3,2.5-8.2,8.2c0.6,19.3,31.3,21.6,31.8,43.7c0.3,13.7-12.3,20.8-24.4,21.1
			c-12.1,0.3-24.9-6.4-24.3-20.3c0-2.1,0-3.1,0-5.2c6.2-0.2,9.2-0.3,15.4-0.4c0,2.4,0,3.6,0,5.9c0,5.9,3.2,8,8.4,7.9
			c5.2-0.1,8.7-2.5,8.5-8.2c-0.6-19.3-31.3-21.5-31.8-43.7C183.1,67.9,195.2,60.3,207.4,60.3z"/>
		<path style="fill:#FFFB00;" d="M236.1,61.3c16.8,0,33.5,0,50.3,0c0,4.8,0,7.2,0,12c-6.8,0-10.2-0.1-17-0.1
			c0,23.8,0.1,47.6,0.1,71.3c-6.5-0.2-9.8-0.3-16.3-0.4c0-23.7,0-47.4-0.1-71c-6.8,0-10.2,0-17,0C236.1,68.4,236.1,66,236.1,61.3z"
			/>
		<path style="fill:#FFFB00;" d="M292.2,81.5c-0.5-14,12.4-21.1,24.6-21.1c12.7,0,25.2,7.8,24.8,22c0.1,15.2,0.1,30.3,0.2,45.5
			c0.7,14.2-12.3,21-24.6,20c-12.3-0.9-25.2-8.5-24.8-22.6C292.3,110.6,292.2,96.1,292.2,81.5z M308.6,126.7c0,6.1,3.3,8.5,8.5,8.8
			c5.2,0.3,8.4-1.8,8.4-8c-0.1-15.5-0.1-31-0.2-46.5c0-6.1-3.3-8.5-8.5-8.6c-5.2,0-8.4,2.2-8.4,8.3
			C308.5,96.1,308.6,111.4,308.6,126.7z"/>
		<path style="fill:#FFFB00;" d="M366.6,86.1c0.1,21.7,0.2,43.4,0.3,65.1c-5.9-0.6-8.8-0.9-14.6-1.5c-0.1-29.5-0.2-58.9-0.4-88.4
			c8.2,0,12.2,0,20.4,0c5.8,18.4,11.4,36.9,16.9,55.4c-0.1-18.5-0.1-36.9-0.2-55.4c5.8,0,8.7,0,14.5,0c0.1,31.5,0.2,62.9,0.3,94.4
			c-6.7-0.9-10-1.4-16.7-2.2C380.4,131.1,373.6,108.6,366.6,86.1z"/>
		<path style="fill:#FFFB00;" d="M431.5,103c8.9,0.6,13.4,1,22.3,1.7c0,5.9,0,8.8,0,14.6c-8.9-0.9-13.3-1.4-22.2-2.2
			c0,11.6,0,17.3,0.1,28.9c11.2,1.6,16.8,2.4,27.9,4.2c0,5.9,0,8.9,0,14.8c-14.6-2.8-29.3-5.3-44.1-7.5c-0.1-32-0.2-64.1-0.3-96.1
			c14.8,0,29.6,0.1,44.3,0.1c0,5.9,0,8.9,0,14.8c-11.2-0.3-16.8-0.5-28.1-0.8C431.4,86.5,431.4,92,431.5,103z"/>
	</g>
</g>
<g>
	<path style="fill:#F4F4F4;" d="M206.2,35.2h6.5v4.6h-6.5v13.3h-5.1V20.9h13.4v4.6h-8.3V35.2z"/>
	<path style="fill:#F4F4F4;" d="M223.7,20.5c4.9,0,7.5,2.9,7.5,8.1v1h-4.8v-1.3c0-2.3-0.9-3.2-2.5-3.2c-1.6,0-2.5,0.9-2.5,3.2
		c0,6.6,9.9,7.9,9.9,17.1c0,5.2-2.6,8.1-7.5,8.1s-7.5-2.9-7.5-8.1v-2h4.8v2.3c0,2.3,1,3.1,2.6,3.1s2.6-0.8,2.6-3.1
		c0-6.6-9.9-7.9-9.9-17.1C216.3,23.5,218.8,20.5,223.7,20.5z"/>
	<path style="fill:#F4F4F4;" d="M238.7,29.8v23.3h-4.6V20.9h6.4l5.2,19.3V20.9h4.5v32.2H245L238.7,29.8z"/>
	<path style="fill:#F4F4F4;" d="M253.8,20.9h8c5.1,0,7.5,2.8,7.5,8v16.3c0,5.2-2.5,8-7.5,8h-8V20.9z M258.9,25.5v23h2.9
		c1.6,0,2.6-0.8,2.6-3.1V28.6c0-2.3-1-3.1-2.6-3.1H258.9z"/>
</g>
</svg>
